<?xml version="1.0" standalone="no"?>
<!DOCTYPE svg PUBLIC "-//W3C//DTD SVG 20010904//EN"
 "http://www.w3.org/TR/2001/REC-SVG-20010904/DTD/svg10.dtd">
<svg version="1.0" xmlns="http://www.w3.org/2000/svg"
 width="500.000000pt" height="500.000000pt" viewBox="0 0 500.000000 500.000000"
 preserveAspectRatio="xMidYMid meet">
<metadata>
Created by potrace 1.14, written by Peter Selinger 2001-2017
</metadata>
<g transform="translate(0.000000,500.000000) scale(0.100000,-0.100000)"
fill="#000000" stroke="none">
<path d="M1955 3860 c3 -5 8 -10 11 -10 2 0 4 5 4 10 0 6 -5 10 -11 10 -5 0
-7 -4 -4 -10z"/>
<path d="M2518 3395 c-2 -1 -40 -5 -85 -9 -219 -17 -400 -78 -577 -195 -254
-167 -401 -433 -463 -836 -12 -80 -56 -243 -86 -321 -38 -97 -40 -138 -7 -184
27 -37 116 -79 174 -82 25 0 46 -6 46 -12 0 -6 4 -5 9 3 14 22 109 7 207 -34
180 -75 225 -90 289 -101 17 -3 48 -10 70 -16 53 -14 272 -13 359 2 75 12 166
39 233 71 24 10 46 19 49 19 21 0 240 118 294 159 36 27 66 48 68 46 4 -3 10
-41 15 -90 4 -33 -1 -46 -28 -82 -25 -33 -32 -51 -31 -85 1 -36 4 -43 20 -43
28 0 54 51 58 109 3 49 4 50 58 78 30 15 71 32 91 38 56 16 88 47 122 119 29
59 38 69 89 96 32 17 71 44 87 59 31 30 94 142 105 187 40 171 21 338 -70 607
-25 73 -34 117 -32 150 2 26 5 45 8 43 11 -9 50 21 50 38 0 25 -42 45 -77 37
-15 -4 -61 -23 -102 -42 l-75 -35 -41 43 c-129 138 -408 240 -695 254 -52 3
-103 6 -112 8 -9 2 -18 3 -20 1z m1101 -259 c8 -10 9 -16 1 -21 -13 -8 -32 4
-25 16 4 5 -1 9 -10 9 -8 0 -19 -8 -23 -18 -4 -10 -39 -46 -78 -79 l-70 -61
-10 46 -11 45 81 38 c86 41 126 48 145 25z m-61 -88 c-2 -25 -18 -49 -64 -97
l-61 -63 -6 38 c-5 32 -2 41 21 63 46 44 102 91 108 91 2 0 3 -15 2 -32z m86
-298 c62 -223 61 -402 -4 -530 -38 -75 -89 -131 -144 -155 -62 -27 -77 -44
-109 -115 -26 -60 -48 -83 -87 -95 -14 -4 -55 -22 -93 -40 -37 -18 -69 -30
-71 -26 -2 3 -7 31 -11 61 -4 30 -9 59 -12 63 -3 4 15 29 39 55 126 135 243
365 263 516 3 27 9 54 11 58 3 5 8 82 10 170 l3 162 62 62 63 63 28 -82 c16
-45 39 -120 52 -167z m-268 95 c-70 -68 -80 -72 -39 -12 22 31 47 71 54 89
l14 33 6 -35 c5 -31 1 -39 -35 -75z m48 -112 c-14 -307 -89 -522 -253 -720
-48 -59 -55 -64 -64 -47 -13 22 -15 231 -4 314 11 81 44 201 74 272 41 96 83
157 164 236 l74 73 6 -40 c3 -21 4 -61 3 -88z m-336 -776 c2 -31 -3 -38 -55
-76 -32 -23 -74 -51 -93 -62 l-35 -21 30 23 c56 43 113 107 126 143 15 42 24
40 27 -7z m29 -251 c-6 -49 -26 -88 -42 -82 -16 5 -6 58 18 93 12 18 24 33 26
33 1 0 1 -20 -2 -44z"/>
<path d="M950 2770 c0 -5 5 -10 11 -10 5 0 7 5 4 10 -3 6 -8 10 -11 10 -2 0
-4 -4 -4 -10z"/>
<path d="M3995 1960 c3 -5 8 -10 11 -10 2 0 4 5 4 10 0 6 -5 10 -11 10 -5 0
-7 -4 -4 -10z"/>
<path d="M2040 1570 c0 -5 5 -10 11 -10 5 0 7 5 4 10 -3 6 -8 10 -11 10 -2 0
-4 -4 -4 -10z"/>
<path d="M3735 1080 c3 -5 8 -10 11 -10 2 0 4 5 4 10 0 6 -5 10 -11 10 -5 0
-7 -4 -4 -10z"/>
</g>
</svg>
